<svg width="50" height="50" viewBox="0 0 50 50" fill="none" xmlns="http://www.w3.org/2000/svg">
<g clip-path="url(#clip0)">
<path d="M32.2576 30.645H27.4189V38.7094H25.1061L29.8383 45.8085L34.5713 38.7094H32.2576V30.645ZM29.8383 42.9005L28.1197 40.3223H29.0318V32.2579H30.6447V40.3223H31.5576L29.8383 42.9005Z" fill="#DF4235"/>
<path d="M15.4288 37.0966H17.7417V45.161H22.5803V37.0966H24.8932L20.161 29.9975L15.4288 37.0966ZM20.9683 35.4837V43.5481H19.3554V35.4837H18.4425L20.1618 32.9055L21.8803 35.4837H20.9683Z" fill="#DF4235"/>
<path d="M49.9561 40.2463C49.5626 36.1842 46.3312 32.856 42.2724 32.3327C40.9119 32.1569 39.5329 32.3004 38.2402 32.7488C37.6829 30.6585 36.6442 28.7884 35.2709 27.2327C41.8417 26.1812 46.7731 20.549 46.7731 13.7104C46.7731 6.15082 40.6232 0.000915527 33.0636 0.000915527C29.7911 0.000915527 26.6565 1.18719 24.1928 3.28151V1.61379C24.1928 0.724291 23.4694 0.000915527 22.5799 0.000915527H1.61253C0.723026 0.000915527 -0.000349977 0.724291 -0.000349977 1.61379V9.67818C-0.000349977 10.5677 0.723026 11.2911 1.61253 11.2911V12.9039C0.723026 12.9039 -0.000349977 13.6273 -0.000349977 14.5168V22.5812C-0.000349977 23.4707 0.723026 24.1941 1.61253 24.1941V25.807C0.723026 25.807 -0.000349977 26.5303 -0.000349977 27.4198V35.4842C-0.000349977 36.1713 0.433514 36.7552 1.03996 36.9874C0.508513 37.9826 0.156099 39.0826 0.0431977 40.2471C-0.203573 42.7849 0.598028 45.2155 2.30042 47.0905C3.97943 48.9397 6.37455 50.0001 8.87128 50.0001H41.1288C43.6256 50.0001 46.0199 48.9397 47.6989 47.0897C49.4005 45.2147 50.2021 42.7849 49.9561 40.2463ZM24.1936 9.67818V8.06531H28.1452C27.7653 9.48222 27.5097 11.0991 27.4468 12.9039H22.5807V11.2911C23.4694 11.2911 24.1936 10.5677 24.1936 9.67818ZM36.2983 8.06531C36.7104 9.45883 36.9999 11.0733 37.0692 12.9039H29.0605C29.1306 11.0757 29.4226 9.46044 29.8371 8.06531H36.2983ZM30.3951 6.45243C31.2951 4.2194 32.4153 2.72507 33.0661 1.9775C33.7185 2.72265 34.841 4.21375 35.7402 6.45243H30.3951ZM45.1199 12.9039H38.6813C38.6184 11.0991 38.3628 9.48222 37.9829 8.06531H43.7546C44.5296 9.52657 45.0046 11.1661 45.1199 12.9039ZM27.4387 14.5168C27.5016 16.3224 27.7678 17.9353 28.1508 19.3555H24.1928V14.5168H27.4387ZM29.0516 14.5168H37.0716C37.0023 16.345 36.7087 17.9603 36.2942 19.3555H29.821C29.4105 17.9619 29.1202 16.3466 29.0516 14.5168ZM38.6853 14.5168H45.1215C45.0078 16.2563 44.5449 17.8958 43.7796 19.3555H37.9797C38.3611 17.9361 38.6224 16.3232 38.6853 14.5168ZM24.1936 22.5812V20.9683H28.6589C28.9968 21.8973 29.3742 22.7239 29.7597 23.4449C28.2678 22.8901 26.6654 22.5812 25.0001 22.5812C24.7275 22.5812 24.4589 22.5998 24.1904 22.6151C24.1904 22.6038 24.1936 22.5933 24.1936 22.5812ZM32.6161 24.9046C31.9548 24.057 31.0951 22.7465 30.3814 20.9683H35.7322C34.8797 23.086 33.8314 24.5384 33.183 25.307C32.9975 25.1683 32.808 25.0336 32.6161 24.9046ZM34.9757 25.6481C35.7644 24.5989 36.7281 23.0465 37.4805 20.9683H42.7498C40.9135 23.4231 38.166 25.1473 34.9757 25.6481ZM42.7183 6.45243H37.4757C36.7233 4.37504 35.7644 2.82023 34.9846 1.78153C38.1345 2.28717 40.8756 4.00811 42.7183 6.45243ZM31.1403 1.78557C30.3605 2.82426 29.404 4.37746 28.6524 6.45243H24.1936V5.50406C26.0396 3.50973 28.4895 2.21378 31.1403 1.78557ZM1.61333 1.61379H22.5807L22.5816 9.67818H1.61333V1.61379ZM3.22621 11.2911H20.9679V12.9039H3.22621V11.2911ZM1.61333 14.5168H22.5807V22.5812H1.61333V14.5168ZM3.22621 24.1941H18.5623C17.7147 24.6465 16.9236 25.1917 16.1913 25.807H3.22621V24.1941ZM1.61333 35.4842V27.4198H14.5672C13.2744 28.9384 12.2946 30.7416 11.7599 32.7488C10.4664 32.2996 9.08822 32.1569 7.72775 32.3327C5.45602 32.6254 3.44476 33.798 2.04397 35.4842H1.61333ZM46.5046 46.0058C45.1304 47.5195 43.1716 48.3873 41.128 48.3873H8.87048C6.82777 48.3873 4.86812 47.5195 3.49476 46.0058C2.10204 44.472 1.4464 42.4817 1.64801 40.4027C1.96978 37.0818 4.61329 34.3609 7.9334 33.9326C8.24226 33.8931 8.55194 33.873 8.85999 33.873C9.93578 33.873 11.0011 34.1133 11.9858 34.5826L12.9285 35.0326L13.1252 34.0068C14.2139 28.3206 19.2074 24.1941 25.0001 24.1941C30.7927 24.1941 35.7862 28.3206 36.8741 34.006L37.0708 35.0318L38.0136 34.5818C39.2805 33.9778 40.6821 33.7528 42.0659 33.931C45.386 34.3592 48.0295 37.081 48.3513 40.4011C48.5529 42.4817 47.8965 44.472 46.5046 46.0058Z" fill="#DF4235"/>
<path d="M41.9348 27.4193H43.5477V29.0322H41.9348V27.4193Z" fill="#DF4235"/>
<path d="M45.1605 27.4193H46.7734V29.0322H45.1605V27.4193Z" fill="#DF4235"/>
<path d="M48.3864 27.4193H49.9992V29.0322H48.3864V27.4193Z" fill="#DF4235"/>
</g>
<defs>
<clipPath id="clip0">
<rect width="50" height="50" fill="white"/>
</clipPath>
</defs>
</svg>
