<svg width="40" height="40" viewBox="0 0 40 40" fill="none" xmlns="http://www.w3.org/2000/svg">
<g clip-path="url(#clip0)">
<path d="M38.9504 30.8577L30.8542 25.4585C29.8268 24.7788 28.4496 25.0024 27.69 25.9724L25.3317 29.0046C25.0286 29.4042 24.4777 29.5201 24.0392 29.2766L23.5906 29.0293C22.1035 28.2187 20.2531 27.2095 16.525 23.4801C12.7969 19.7506 11.7857 17.8989 10.9751 16.4145L10.7292 15.9659C10.4822 15.5275 10.596 14.9742 10.9958 14.6687L14.0259 12.3111C14.9955 11.5515 15.2194 10.1746 14.5406 9.1469L9.14135 1.05076C8.4456 0.00419364 7.04971 -0.309978 5.9726 0.337503L2.58709 2.37119C1.52334 2.99656 0.742912 4.00938 0.409446 5.19741C-0.809671 9.6394 0.107458 17.3056 11.4005 28.5999C20.3838 37.5826 27.0715 39.9983 31.6682 39.9983C32.7261 40.0028 33.7798 39.8651 34.8011 39.589C35.9893 39.2559 37.0023 38.4754 37.6273 37.4114L39.663 34.0279C40.3114 32.9506 39.9974 31.5538 38.9504 30.8577ZM38.5144 33.3439L36.4834 36.7294C36.0346 37.4975 35.3061 38.0621 34.4503 38.3052C30.3496 39.4311 23.1854 38.4986 12.3436 27.6568C1.50186 16.8151 0.569422 9.65143 1.69527 5.55009C1.93867 4.69334 2.50406 3.96384 3.27301 3.51438L6.65852 1.48335C7.12587 1.20214 7.73172 1.33845 8.03363 1.7926L10.9666 6.19593L13.4282 9.88804C13.723 10.3338 13.6262 10.9313 13.2056 11.2612L10.1747 13.6188C9.25235 14.3241 8.98895 15.6002 9.55684 16.6131L9.79751 17.0503C10.6494 18.6128 11.7086 20.5565 15.5753 24.4226C19.4421 28.2887 21.3852 29.3479 22.9469 30.1997L23.3848 30.441C24.3975 31.0088 25.6737 30.7455 26.379 29.8231L28.7367 26.7922C29.0666 26.3719 29.6639 26.2751 30.1098 26.5696L38.2052 31.9688C38.6597 32.2705 38.796 32.8767 38.5144 33.3439Z" fill="#DF4235"/>
<path d="M22.6656 6.67C28.921 6.67695 33.9902 11.7463 33.9972 18.0017C33.9972 18.3698 34.2956 18.6682 34.6638 18.6682C35.0319 18.6682 35.3303 18.3698 35.3303 18.0017C35.3226 11.0103 29.657 5.34457 22.6656 5.33691C22.2974 5.33691 21.999 5.63531 21.999 6.00346C21.999 6.3716 22.2974 6.67 22.6656 6.67Z" fill="#DF4235"/>
<path d="M22.6656 10.6695C26.7131 10.6743 29.9931 13.9543 29.9978 18.0018C29.9978 18.3699 30.2963 18.6683 30.6644 18.6683C31.0325 18.6683 31.3309 18.3699 31.3309 18.0018C31.3254 13.2183 27.449 9.34189 22.6656 9.33643C22.2974 9.33643 21.999 9.63482 21.999 10.003C21.999 10.3711 22.2974 10.6695 22.6656 10.6695Z" fill="#DF4235"/>
<path d="M22.6656 14.669C24.5053 14.6712 25.9962 16.1621 25.9984 18.0019C25.9984 18.37 26.2969 18.6684 26.665 18.6684C27.033 18.6684 27.3315 18.37 27.3315 18.0019C27.3285 15.4262 25.2413 13.3388 22.6656 13.3359C22.2974 13.3359 21.999 13.6343 21.999 14.0025C21.999 14.3706 22.2974 14.669 22.6656 14.669Z" fill="#DF4235"/>
</g>
<defs>
<clipPath id="clip0">
<rect width="40" height="40" fill="white"/>
</clipPath>
</defs>
</svg>
