<svg width="50" height="50" viewBox="0 0 50 50" fill="none" xmlns="http://www.w3.org/2000/svg">
<path d="M48.2888 13.531L35.5506 0.294727C35.3693 0.106445 35.1191 0 34.8578 0H15.8724C13.7477 0 12.0191 1.72793 12.0191 3.85176V17.3077H4.32505C2.7354 17.3077 1.44214 18.6006 1.44214 20.1898V34.618C1.44214 36.2071 2.7354 37.5 4.32505 37.5H12.0191V46.155C12.0191 48.2751 13.7477 50 15.8724 50H44.7042C46.829 50 48.5576 48.2761 48.5576 46.1571V14.1978C48.5576 13.9491 48.4612 13.7102 48.2888 13.531ZM35.096 2.5958L45.553 13.4615H35.096V2.5958ZM4.32505 35.577C3.79575 35.577 3.36528 35.1468 3.36528 34.618V20.1898C3.36528 19.661 3.79585 19.2308 4.32505 19.2308H30.29C30.8192 19.2308 31.2499 19.661 31.2499 20.1898V34.618C31.2499 35.1468 30.8192 35.577 30.29 35.577H4.32505ZM46.6344 46.1571C46.6344 47.2157 45.7685 48.077 44.7042 48.077H15.8724C14.8081 48.077 13.9421 47.2148 13.9421 46.1551V37.5H30.2899C31.8796 37.5 33.1729 36.2071 33.1729 34.618V20.1898C33.1729 18.6006 31.8796 17.3077 30.2899 17.3077H13.9421V3.85176C13.9421 2.78818 14.8081 1.92305 15.8724 1.92305H33.1729V14.423C33.1729 14.9541 33.6035 15.3846 34.1344 15.3846H46.6344V46.1571Z" fill="#DF4235"/>
<path d="M12.7758 25.7276C12.5956 25.2 12.3329 24.7541 11.9872 24.3896C11.6417 24.0253 11.2266 23.7719 10.742 23.6291C10.3815 23.5237 9.85767 23.4714 9.17017 23.4714H6.12231V31.7308H9.2603C9.87642 31.7308 10.3685 31.6727 10.7365 31.556C11.2286 31.3982 11.6192 31.1785 11.9083 30.8969C12.2916 30.525 12.5863 30.0387 12.793 29.4377C12.962 28.9456 13.0463 28.3599 13.0463 27.6798C13.0462 26.9062 12.9561 26.2555 12.7758 25.7276ZM11.1532 29.1194C11.0407 29.4894 10.895 29.755 10.7167 29.9165C10.5382 30.078 10.3137 30.1928 10.0433 30.2602C9.83687 30.3129 9.50054 30.3391 9.03491 30.3391H7.78979V24.8683H8.53901C9.21909 24.8683 9.67534 24.8946 9.90825 24.9473C10.2201 25.015 10.4773 25.1446 10.6801 25.3359C10.8828 25.5275 11.0407 25.7943 11.1532 26.1362C11.2659 26.4778 11.3224 26.968 11.3224 27.6066C11.3225 28.2452 11.266 28.7495 11.1532 29.1194Z" fill="#DF4235"/>
<path d="M28.7206 28.694C28.5814 29.2988 28.3523 29.7421 28.0331 30.0236C27.7138 30.3053 27.3326 30.4462 26.8893 30.4462C26.2883 30.4462 25.8001 30.2245 25.4247 29.7816C25.049 29.3383 24.8612 28.5945 24.8612 27.5503C24.8612 26.5664 25.0518 25.8546 25.4331 25.4153C25.8143 24.9756 26.311 24.7558 26.9232 24.7558C27.3665 24.7558 27.7429 24.8798 28.0528 25.1277C28.3627 25.3757 28.5666 25.7137 28.6641 26.1418L30.3149 25.7473C30.1272 25.0863 29.8455 24.5793 29.47 24.2262C28.8389 23.6291 28.0183 23.3305 27.008 23.3305C25.8509 23.3305 24.9175 23.7108 24.2078 24.4714C23.4979 25.2321 23.1428 26.2995 23.1428 27.6742C23.1428 28.9738 23.4959 29.9983 24.2022 30.7476C24.9082 31.4969 25.8096 31.8716 26.9065 31.8716C27.7927 31.8716 28.5243 31.6529 29.1009 31.2152C29.6774 30.7777 30.0896 30.1082 30.3375 29.2068L28.7206 28.694Z" fill="#DF4235"/>
<path d="M21.0384 24.463C20.3076 23.7079 19.3341 23.3305 18.117 23.3305C17.4446 23.3305 16.8514 23.4394 16.3367 23.6572C15.9499 23.8187 15.5939 24.0665 15.2691 24.4009C14.9441 24.735 14.6879 25.1126 14.4999 25.5333C14.2482 26.1042 14.1226 26.8103 14.1226 27.6516C14.1226 28.9662 14.4851 29.9983 15.2098 30.7475C15.9348 31.4968 16.9115 31.8715 18.1396 31.8715C19.3528 31.8715 20.3219 31.4951 21.0469 30.7419C21.7716 29.9888 22.1341 28.9455 22.1341 27.6121C22.1341 26.2675 21.7688 25.2178 21.0384 24.463ZM19.7706 29.728C19.3444 30.2068 18.7987 30.4462 18.1338 30.4462C17.4691 30.4462 16.9208 30.2049 16.4889 29.7224C16.0569 29.2397 15.8408 28.5308 15.8408 27.5955C15.8408 26.6452 16.0512 25.9344 16.4718 25.463C16.8925 24.9916 17.4466 24.7558 18.1338 24.7558C18.8213 24.7558 19.3725 24.9887 19.7874 25.4546C20.2025 25.9202 20.41 26.6265 20.41 27.5729C20.41 28.5308 20.197 29.2491 19.7706 29.728Z" fill="#DF4235"/>
</svg>
