<svg width="54" height="54" viewBox="0 0 54 54" fill="none" xmlns="http://www.w3.org/2000/svg">
<path d="M28.1924 45.6996C28.3664 45.7082 28.5388 45.6629 28.686 45.5699C28.8332 45.4768 28.9482 45.3406 29.0151 45.1799L30.3109 42.0515C30.3776 41.8906 30.3928 41.7129 30.3545 41.543C30.3161 41.373 30.2261 41.2191 30.0968 41.1023L27.6885 38.9281V37.0099L30.0968 34.8357C30.2261 34.7189 30.3161 34.565 30.3545 34.3951C30.3928 34.2251 30.3776 34.0474 30.3109 33.8865L29.0151 30.7582C28.9485 30.5971 28.8336 30.4607 28.6863 30.3676C28.539 30.2746 28.3665 30.2294 28.1924 30.2384L24.9521 30.4039L23.5961 29.0479L23.7616 25.8076C23.7705 25.6336 23.7253 25.4611 23.6323 25.3138C23.5392 25.1665 23.4028 25.0516 23.2418 24.9849L20.1135 23.6891C19.9526 23.6224 19.7749 23.6072 19.605 23.6456C19.435 23.6839 19.2811 23.7739 19.1643 23.9032L16.9901 26.3115H15.0725L12.8982 23.9032C12.7815 23.7739 12.6275 23.6839 12.4576 23.6456C12.2876 23.6072 12.11 23.6224 11.949 23.6891L8.82068 24.9855C8.65971 25.0522 8.52333 25.1671 8.43027 25.3144C8.33721 25.4617 8.29203 25.6342 8.30093 25.8082L8.46641 29.0485L7.1104 30.4039L3.87009 30.2384C3.69605 30.2294 3.5235 30.2745 3.37617 30.3676C3.22884 30.4607 3.11399 30.5971 3.04743 30.7582L1.75175 33.8865C1.68506 34.0474 1.66984 34.2251 1.70818 34.3951C1.74651 34.565 1.83652 34.7189 1.96585 34.8357L4.37412 37.0099V38.9276L1.96585 41.1018C1.83652 41.2186 1.74651 41.3725 1.70818 41.5424C1.66984 41.7124 1.68506 41.8901 1.75175 42.051L3.04806 45.1793C3.11474 45.3403 3.22962 45.4767 3.37692 45.5697C3.52421 45.6628 3.69671 45.708 3.87072 45.6991L7.11103 45.5336L8.46705 46.8896L8.30157 50.1299C8.29266 50.3039 8.33784 50.4764 8.4309 50.6237C8.52396 50.771 8.66035 50.8859 8.82132 50.9526L11.9496 52.2484C12.1106 52.3151 12.2882 52.3303 12.4582 52.2919C12.6282 52.2536 12.7821 52.1636 12.8988 52.0343L15.0731 49.626H16.9907L19.165 52.0343C19.2817 52.1636 19.4356 52.2536 19.6056 52.2919C19.7756 52.3303 19.9532 52.3151 20.1142 52.2484L23.2425 50.9526C23.4035 50.8859 23.5398 50.771 23.6329 50.6237C23.726 50.4764 23.7711 50.3039 23.7622 50.1299L23.5968 46.8896L24.9528 45.5336L28.1924 45.6996ZM24.024 44.0754L22.1379 45.9615C22.0544 46.045 21.9894 46.145 21.947 46.2552C21.9046 46.3654 21.8858 46.4833 21.8918 46.6012L22.0462 49.6213L20.018 50.4613L17.9914 48.2167C17.9123 48.1291 17.8157 48.0591 17.7078 48.0111C17.5999 47.9632 17.4832 47.9384 17.3651 47.9384H14.6975C14.5795 47.9384 14.4627 47.9632 14.3548 48.0111C14.247 48.0591 14.1503 48.1291 14.0712 48.2167L12.0445 50.4613L10.0165 49.6213L10.1708 46.6012C10.1768 46.4833 10.158 46.3654 10.1156 46.2552C10.0732 46.145 10.0082 46.045 9.92473 45.9615L8.03853 44.0754C7.95494 43.9921 7.85486 43.9271 7.7447 43.8847C7.63454 43.8424 7.51674 43.8235 7.39886 43.8293L4.37876 43.9836L3.5387 41.9555L5.78329 39.9289C5.87091 39.8498 5.94096 39.7532 5.9889 39.6453C6.03685 39.5374 6.06162 39.4207 6.06162 39.3026V36.635C6.06162 36.5169 6.03685 36.4002 5.9889 36.2923C5.94096 36.1844 5.87091 36.0878 5.78329 36.0087L3.5387 33.982L4.37876 31.954L7.39886 32.1083C7.51674 32.1141 7.63455 32.0953 7.74471 32.0529C7.85487 32.0105 7.95495 31.9456 8.03853 31.8622L9.92463 29.976C10.0081 29.8925 10.0731 29.7925 10.1155 29.6823C10.1579 29.5721 10.1767 29.4542 10.1707 29.3363L10.0164 26.3162L12.0444 25.4762L14.071 27.7208C14.1501 27.8084 14.2468 27.8784 14.3546 27.9264C14.4625 27.9743 14.5792 27.9991 14.6973 27.9991H17.3648C17.4829 27.9991 17.5996 27.9743 17.7075 27.9264C17.8154 27.8784 17.912 27.8084 17.9911 27.7208L20.018 25.4762L22.046 26.3162L21.8917 29.3363C21.8857 29.4542 21.9045 29.5721 21.9469 29.6823C21.9893 29.7925 22.0543 29.8925 22.1378 29.976L24.024 31.8621C24.1075 31.9456 24.2075 32.0107 24.3177 32.0531C24.4279 32.0955 24.5458 32.1142 24.6637 32.1082L27.6838 31.9539L28.5238 33.9819L26.2792 36.0085C26.1916 36.0876 26.1216 36.1842 26.0736 36.2921C26.0257 36.4 26.0009 36.5167 26.0009 36.6348V39.3023C26.0009 39.4204 26.0257 39.5371 26.0736 39.645C26.1216 39.7528 26.1916 39.8495 26.2792 39.9286L28.5238 41.9555L27.6838 43.9835L24.6637 43.8292C24.5458 43.8232 24.4279 43.842 24.3177 43.8844C24.2075 43.9268 24.1074 43.9918 24.024 44.0754Z" fill="#FB6A5E"/>
<path d="M16.0312 33.75C15.1969 33.75 14.3812 33.9974 13.6874 34.461C12.9937 34.9246 12.4529 35.5834 12.1336 36.3543C11.8143 37.1252 11.7308 37.9734 11.8936 38.7918C12.0563 39.6102 12.4581 40.3619 13.0481 40.9519C13.6381 41.5419 14.3899 41.9437 15.2082 42.1064C16.0266 42.2692 16.8748 42.1857 17.6457 41.8664C18.4166 41.5471 19.0754 41.0063 19.539 40.3126C20.0026 39.6188 20.25 38.8031 20.25 37.9688C20.2487 36.8503 19.8039 35.7779 19.013 34.987C18.2221 34.1961 17.1497 33.7513 16.0312 33.75ZM16.0312 40.5C15.5306 40.5 15.0412 40.3516 14.625 40.0734C14.2087 39.7953 13.8843 39.3999 13.6927 38.9374C13.5011 38.4749 13.451 37.9659 13.5486 37.4749C13.6463 36.9839 13.8874 36.5329 14.2414 36.1789C14.5954 35.8249 15.0464 35.5838 15.5374 35.4861C16.0284 35.3885 16.5374 35.4386 16.9999 35.6302C17.4624 35.8218 17.8578 36.1462 18.1359 36.5625C18.414 36.9787 18.5625 37.4681 18.5625 37.9688C18.5617 38.6398 18.2948 39.2832 17.8202 39.7578C17.3457 40.2323 16.7023 40.4992 16.0312 40.5Z" fill="#FB6A5E"/>
<path d="M51.4688 1.6875H14.3438C14.12 1.6875 13.9054 1.77639 13.7471 1.93463C13.5889 2.09286 13.5 2.30747 13.5 2.53125V22.7812H15.1875V3.375H50.625V47.25H25.3125V48.9375H51.4688C51.6925 48.9375 51.9071 48.8486 52.0654 48.6904C52.2236 48.5321 52.3125 48.3175 52.3125 48.0938V2.53125C52.3125 2.30747 52.2236 2.09286 52.0654 1.93463C51.9071 1.77639 51.6925 1.6875 51.4688 1.6875Z" fill="#FB6A5E"/>
<path d="M17.7188 17.7188V21.0938C17.7188 21.3175 17.8076 21.5321 17.9659 21.6904C18.1241 21.8486 18.3387 21.9375 18.5625 21.9375H22.7812V23.625H24.4688V21.9375H28.6875C28.9113 21.9375 29.1259 21.8486 29.2841 21.6904C29.4424 21.5321 29.5312 21.3175 29.5312 21.0938V20.25H32.0625V44.7188H33.75V34.5938H36.2812V35.4375C36.2812 35.6613 36.3701 35.8759 36.5284 36.0341C36.6866 36.1924 36.9012 36.2812 37.125 36.2812H41.3438V37.9688H37.125C36.9012 37.9688 36.6866 38.0576 36.5284 38.2159C36.3701 38.3741 36.2812 38.5887 36.2812 38.8125V42.1875C36.2812 42.4113 36.3701 42.6259 36.5284 42.7841C36.6866 42.9424 36.9012 43.0312 37.125 43.0312H41.3438V44.7188H43.0312V43.0312H47.25C47.4738 43.0312 47.6884 42.9424 47.8466 42.7841C48.0049 42.6259 48.0938 42.4113 48.0938 42.1875V38.8125C48.0938 38.5887 48.0049 38.3741 47.8466 38.2159C47.6884 38.0576 47.4738 37.9688 47.25 37.9688H43.0312V36.2812H47.25C47.4738 36.2812 47.6884 36.1924 47.8466 36.0341C48.0049 35.8759 48.0938 35.6613 48.0938 35.4375V32.0625C48.0938 31.8387 48.0049 31.6241 47.8466 31.4659C47.6884 31.3076 47.4738 31.2188 47.25 31.2188H37.125C36.9012 31.2188 36.6866 31.3076 36.5284 31.4659C36.3701 31.6241 36.2812 31.8387 36.2812 32.0625V32.9062H33.75V20.25H36.2812V21.0938C36.2812 21.3175 36.3701 21.5321 36.5284 21.6904C36.6866 21.8486 36.9012 21.9375 37.125 21.9375H41.3438V23.625H37.125C36.9012 23.625 36.6866 23.7139 36.5284 23.8721C36.3701 24.0304 36.2812 24.245 36.2812 24.4688V27.8438C36.2812 28.0675 36.3701 28.2821 36.5284 28.4404C36.6866 28.5986 36.9012 28.6875 37.125 28.6875H47.25C47.4738 28.6875 47.6884 28.5986 47.8466 28.4404C48.0049 28.2821 48.0938 28.0675 48.0938 27.8438V24.4688C48.0938 24.245 48.0049 24.0304 47.8466 23.8721C47.6884 23.7139 47.4738 23.625 47.25 23.625H43.0312V21.9375H47.25C47.4738 21.9375 47.6884 21.8486 47.8466 21.6904C48.0049 21.5321 48.0938 21.3175 48.0938 21.0938V17.7188C48.0938 17.495 48.0049 17.2804 47.8466 17.1221C47.6884 16.9639 47.4738 16.875 47.25 16.875H37.125C36.9012 16.875 36.6866 16.9639 36.5284 17.1221C36.3701 17.2804 36.2812 17.495 36.2812 17.7188V18.5625H33.75V15.9596C34.5954 15.8175 35.3908 15.4628 36.0614 14.9289C36.7321 14.3949 37.256 13.6993 37.584 12.9072C37.9119 12.1152 38.0331 11.2528 37.9363 10.401C37.8394 9.54928 37.5275 8.73613 37.0301 8.03798L38.3182 6.75H47.25V5.0625H37.9688C37.8579 5.0625 37.7482 5.08432 37.6459 5.12672C37.5435 5.16912 37.4505 5.23126 37.3721 5.30961L35.837 6.84492C35.217 6.40405 34.5056 6.10864 33.7557 5.98064C33.0058 5.85265 32.2366 5.89537 31.5055 6.10564C30.7744 6.3159 30.1001 6.68829 29.5327 7.19511C28.9654 7.70194 28.5196 8.33015 28.2285 9.03303C27.9374 9.73591 27.8086 10.4954 27.8515 11.2549C27.8944 12.0145 28.108 12.7546 28.4765 13.4202C28.8449 14.0858 29.3586 14.6597 29.9795 15.0994C30.6003 15.5391 31.3123 15.8331 32.0625 15.9596V18.5625H29.5312V17.7188C29.5312 17.495 29.4424 17.2804 29.2841 17.1221C29.1259 16.9639 28.9113 16.875 28.6875 16.875H18.5625C18.3387 16.875 18.1241 16.9639 17.9659 17.1221C17.8076 17.2804 17.7188 17.495 17.7188 17.7188ZM46.4062 41.3438H37.9688V39.6562H46.4062V41.3438ZM37.9688 32.9062H46.4062V34.5938H37.9688V32.9062ZM46.4062 27H37.9688V25.3125H46.4062V27ZM37.9688 18.5625H46.4062V20.25H37.9688V18.5625ZM29.5312 10.9688C29.5309 10.3737 29.6879 9.7891 29.9865 9.27435C30.285 8.75959 30.7144 8.33299 31.2312 8.03784C31.7479 7.7427 32.3335 7.58951 32.9285 7.59383C33.5236 7.59815 34.1069 7.75983 34.6193 8.06245L32.3095 10.3722L33.5028 11.5655L35.8125 9.25573C36.076 9.70274 36.2329 10.2045 36.2709 10.722C36.3089 11.2395 36.2271 11.7588 36.0318 12.2395C35.8364 12.7202 35.5328 13.1494 35.1446 13.4937C34.7564 13.838 34.2941 14.0882 33.7934 14.2247C33.2928 14.3612 32.7675 14.3805 32.2582 14.2809C31.749 14.1814 31.2695 13.9657 30.8572 13.6507C30.4448 13.3357 30.1107 12.9299 29.8807 12.4647C29.6508 11.9996 29.5312 11.4876 29.5312 10.9688ZM19.4062 18.5625H27.8438V20.25H19.4062V18.5625Z" fill="#FB6A5E"/>
<path d="M16.0313 30.375C14.5294 30.375 13.0612 30.8204 11.8124 31.6548C10.5636 32.4892 9.5903 33.6752 9.01554 35.0627C8.44079 36.4503 8.29041 37.9772 8.58342 39.4502C8.87642 40.9233 9.59966 42.2763 10.6617 43.3383C11.7237 44.4003 13.0767 45.1236 14.5498 45.4166C16.0228 45.7096 17.5497 45.5592 18.9373 44.9845C20.3248 44.4097 21.5108 43.4364 22.3452 42.1876C23.1796 40.9388 23.625 39.4707 23.625 37.9688C23.6227 35.9555 22.822 34.0253 21.3983 32.6017C19.9747 31.178 18.0445 30.3773 16.0313 30.375ZM16.0313 43.875C14.8631 43.875 13.7212 43.5286 12.7499 42.8796C11.7786 42.2306 11.0216 41.3082 10.5746 40.229C10.1276 39.1497 10.0106 37.9622 10.2385 36.8165C10.4664 35.6708 11.0289 34.6184 11.8549 33.7924C12.6809 32.9664 13.7333 32.4039 14.879 32.176C16.0247 31.9481 17.2123 32.0651 18.2915 32.5121C19.3707 32.9591 20.2931 33.7161 20.9421 34.6874C21.5911 35.6587 21.9375 36.8006 21.9375 37.9688C21.9357 39.5346 21.3129 41.0359 20.2056 42.1431C19.0984 43.2504 17.5971 43.8732 16.0313 43.875Z" fill="#FB6A5E"/>
</svg>
