<svg width="50" height="50" viewBox="0 0 50 50" fill="none" xmlns="http://www.w3.org/2000/svg">
<path d="M49.1667 48.3333H45.8334V25C45.8319 23.6199 44.7135 22.5015 43.3334 22.5V17.5C43.3319 16.1199 42.2135 15.0015 40.8334 15V10C40.8319 8.61992 39.7135 7.50147 38.3334 7.5V2.5C38.3319 1.11992 37.2135 0.00146484 35.8334 0H14.1667C12.7866 0.00146484 11.6682 1.11992 11.6667 2.5V7.5C10.2866 7.50147 9.16816 8.61992 9.1667 10V15C7.78662 15.0015 6.66816 16.1199 6.6667 17.5V22.5C5.28662 22.5015 4.16816 23.6199 4.1667 25V48.3333H0.833301C0.373047 48.3333 0 48.7063 0 49.1666C0 49.6269 0.373047 50 0.833301 50H49.1666C49.6269 50 49.9999 49.627 49.9999 49.1667C49.9999 48.7064 49.627 48.3333 49.1667 48.3333ZM13.3333 2.5C13.3336 2.03994 13.7065 1.66699 14.1666 1.6667H35.8333C36.2935 1.66699 36.6663 2.03994 36.6666 2.5V7.5H24.0824C23.6864 5.56006 21.98 4.1667 20 4.1667C18.02 4.1667 16.3136 5.56006 15.9176 7.5H13.3334V2.5H13.3333ZM22.3465 7.5H17.6536C18.0018 6.50195 18.9431 5.8333 20.0001 5.8333C21.0571 5.8333 21.9983 6.50195 22.3465 7.5ZM10.8333 10C10.8336 9.53984 11.2065 9.16699 11.6666 9.1667H38.3333C38.7935 9.16699 39.1663 9.53994 39.1666 10V15H21.5824C21.1864 13.0601 19.48 11.6667 17.5 11.6667C15.52 11.6667 13.8136 13.0601 13.4176 15H10.8334V10H10.8333ZM19.8465 15H15.1536C15.5018 14.002 16.4431 13.3333 17.5001 13.3333C18.5571 13.3333 19.4983 14.002 19.8465 15ZM8.3333 17.5C8.33359 17.0398 8.70654 16.667 9.1666 16.6667H40.8333C41.2934 16.667 41.6663 17.0399 41.6666 17.5V22.5H19.0824C18.6864 20.5601 16.98 19.1667 15 19.1667C13.02 19.1667 11.3136 20.5601 10.9176 22.5H8.3333V17.5ZM17.3465 22.5H12.6536C13.0018 21.502 13.9431 20.8333 15.0001 20.8333C16.0571 20.8333 16.9983 21.502 17.3465 22.5ZM44.1667 48.3333H5.8333V25C5.83359 24.5399 6.20654 24.167 6.6666 24.1667H43.3333C43.7935 24.167 44.1663 24.5399 44.1666 25V48.3333H44.1667Z" fill="#FB6A5E"/>
<path d="M14.1668 37.5C16.9282 37.5 19.1668 35.2614 19.1668 32.5C19.1668 29.7386 16.9282 27.5 14.1668 27.5C11.4053 27.5 9.16675 29.7386 9.16675 32.5C9.16978 35.2602 11.4065 37.497 14.1668 37.5ZM14.1668 29.1667C16.0077 29.1667 17.5001 30.6591 17.5001 32.5C17.5001 34.3409 16.0077 35.8333 14.1668 35.8333C12.3258 35.8333 10.8334 34.3409 10.8334 32.5C10.8352 30.6598 12.3265 29.1685 14.1668 29.1667Z" fill="#FB6A5E"/>
<path d="M40.0001 27.5H22.5C22.0398 27.5 21.6667 27.873 21.6667 28.3333C21.6667 28.7936 22.0398 29.1666 22.5 29.1666H40.0001C40.4603 29.1666 40.8334 28.7936 40.8334 28.3333C40.8334 27.873 40.4603 27.5 40.0001 27.5Z" fill="#FB6A5E"/>
<path d="M40.0001 31.6667H22.5C22.0398 31.6667 21.6667 32.0398 21.6667 32.5C21.6667 32.9602 22.0398 33.3333 22.5 33.3333H40.0001C40.4603 33.3333 40.8334 32.9601 40.8334 32.5C40.8334 32.0397 40.4603 31.6667 40.0001 31.6667Z" fill="#FB6A5E"/>
<path d="M40.0001 35.8333H22.5C22.0398 35.8333 21.6667 36.2064 21.6667 36.6666C21.6667 37.1269 22.0398 37.5 22.5 37.5H40.0001C40.4603 37.5 40.8334 37.127 40.8334 36.6667C40.8334 36.2065 40.4603 35.8333 40.0001 35.8333Z" fill="#FB6A5E"/>
<path d="M40.0001 40H10C9.5398 40 9.16675 40.373 9.16675 40.8333C9.16675 41.2936 9.5398 41.6666 10 41.6666H40.0001C40.4603 41.6666 40.8334 41.2936 40.8334 40.8333C40.8334 40.373 40.4603 40 40.0001 40Z" fill="#FB6A5E"/>
<path d="M40.0001 44.1667H10C9.5398 44.1667 9.16675 44.5398 9.16675 45C9.16675 45.4601 9.5398 45.8333 10 45.8333H40.0001C40.4603 45.8333 40.8334 45.4602 40.8334 45C40.8334 44.5397 40.4603 44.1667 40.0001 44.1667Z" fill="#FB6A5E"/>
</svg>
