<svg width="40" height="40" viewBox="0 0 40 40" fill="none" xmlns="http://www.w3.org/2000/svg">
<path d="M34.9572 33.2566C38.091 29.7248 40 25.0821 40 20C40 14.7124 37.9338 9.90138 34.571 6.32138V6.32069C34.5683 6.31655 34.5641 6.31517 34.5621 6.31172C31.0593 2.58828 26.1517 0.204828 20.6931 0.017931L20.6924 0.0172414L20.3028 0.00689655C20.2021 0.00344828 20.1014 0 20 0C19.8986 0 19.7979 0.00344828 19.6972 0.00689655L19.309 0.0172414L19.3083 0.017931C13.8497 0.204828 8.94207 2.58828 5.43931 6.31172C5.43655 6.31517 5.43241 6.31655 5.43035 6.32069C5.43035 6.32069 5.43035 6.32138 5.42966 6.32207C2.06621 9.90138 0 14.7124 0 20C0 25.0821 1.90897 29.7248 5.04276 33.2566C5.0469 33.2628 5.0469 33.2697 5.05172 33.2759C5.06414 33.2931 5.08207 33.3014 5.09517 33.3172C8.61655 37.2538 13.669 39.7897 19.3076 39.9828L19.3083 39.9835L19.6966 39.9938C19.7979 39.9966 19.8986 40 20 40C20.1014 40 20.2021 39.9966 20.3028 39.9931L20.691 39.9828L20.6917 39.9821C26.3366 39.7883 31.3945 37.2476 34.9159 33.3028C34.9248 33.291 34.9393 33.2876 34.9476 33.2752C34.9531 33.2697 34.9531 33.2628 34.9572 33.2566ZM1.39655 20.6897H9.67448C9.75241 23.6131 10.3234 26.4538 11.34 29.1152C9.37862 29.8248 7.50345 30.7766 5.74621 31.9641C3.16207 28.8903 1.55379 24.9724 1.39655 20.6897ZM6.12276 7.60207C7.83862 8.71793 9.66552 9.61172 11.571 10.2793C10.4041 13.1117 9.75862 16.1655 9.67448 19.3103H1.39655C1.56138 14.8228 3.31862 10.7366 6.12276 7.60207ZM38.6034 19.3103H30.3255C30.2414 16.1655 29.5959 13.1117 28.429 10.2793C30.3345 9.61172 32.1614 8.71793 33.8772 7.60207C36.6814 10.7366 38.4386 14.8228 38.6034 19.3103ZM19.3103 10.3193C17.3166 10.2628 15.3593 9.96552 13.4683 9.43448C14.8662 6.5669 16.84 3.97862 19.3103 1.82345V10.3193ZM19.3103 11.6986V19.3103H11.0538C11.1386 16.3117 11.7676 13.4034 12.8924 10.7069C14.9655 11.3076 17.1179 11.64 19.3103 11.6986ZM20.6897 11.6986C22.8821 11.64 25.0345 11.3083 27.1083 10.7069C28.2331 13.4034 28.8621 16.3117 28.9469 19.3103H20.6897V11.6986ZM20.6897 10.3193V1.82345C23.16 3.97862 25.1338 6.5669 26.5317 9.43448C24.6407 9.96552 22.6834 10.2628 20.6897 10.3193ZM27.8683 9.01517C26.5434 6.23931 24.7048 3.71034 22.4283 1.54276C26.4669 2.07103 30.1007 3.89724 32.8993 6.58966C31.3103 7.59793 29.6248 8.40897 27.8683 9.01517ZM12.1317 9.01517C10.3752 8.40897 8.68966 7.59793 7.10138 6.58966C9.89931 3.89724 13.5338 2.07103 17.5724 1.54276C15.2952 3.71034 13.4566 6.23931 12.1317 9.01517ZM11.0538 20.6897H19.3103V27.6124C17.0297 27.6731 14.7952 28.029 12.6476 28.6752C11.6772 26.1545 11.1317 23.4614 11.0538 20.6897ZM19.3103 28.9917V38.1766C16.6662 35.8697 14.5931 33.0669 13.1834 29.9579C15.1607 29.3752 17.2145 29.051 19.3103 28.9917ZM20.6897 38.1766V28.9917C22.7855 29.0503 24.8393 29.3752 26.8166 29.9572C25.4069 33.0669 23.3338 35.8697 20.6897 38.1766ZM20.6897 27.6124V20.6897H28.9462C28.8683 23.4614 28.3228 26.1545 27.3517 28.6759C25.2048 28.029 22.9703 27.6731 20.6897 27.6124ZM30.3255 20.6897H38.6034C38.4462 24.9724 36.8386 28.8903 34.2538 31.9641C32.4966 30.7766 30.6214 29.8248 28.66 29.1152C29.6772 26.4538 30.2476 23.6131 30.3255 20.6897ZM6.68345 32.9972C8.31517 31.9131 10.0524 31.0414 11.8676 30.3897C13.209 33.3966 15.1345 36.1366 17.5717 38.4572C13.3297 37.9021 9.5331 35.9159 6.68345 32.9972ZM22.4283 38.4572C24.8655 36.1372 26.791 33.3972 28.1324 30.3897C29.9476 31.0414 31.6841 31.9131 33.3166 32.9972C30.4669 35.9159 26.6703 37.9021 22.4283 38.4572Z" fill="#DF4235"/>
</svg>
