<svg width="145" height="30" viewBox="0 0 145 30" fill="none" xmlns="http://www.w3.org/2000/svg">
<path d="M5.04946 18.005V28.5714H0.0339355V0.133911H11.076C14.3008 0.133911 16.8581 0.960734 18.748 2.61438C20.6511 4.26803 21.6026 6.45553 21.6026 9.17688C21.6026 11.9633 20.671 14.1313 18.8075 15.6808C16.9573 17.2303 14.3602 18.005 11.0166 18.005H5.04946ZM5.04946 14.0402H11.076C12.8602 14.0402 14.2215 13.63 15.1598 12.8097C16.0981 11.9764 16.5674 10.7784 16.5674 9.21594C16.5674 7.67948 16.0916 6.45553 15.14 5.54407C14.1884 4.61958 12.88 4.14433 11.2148 4.11828H5.04946V14.0402ZM39.9685 19.8451C39.9685 21.6448 39.6456 23.2227 38.9999 24.5787C38.3542 25.9347 37.4281 26.981 36.2217 27.7176C35.0237 28.4543 33.6473 28.8226 32.0925 28.8226C30.5548 28.8226 29.1827 28.4584 27.9761 27.7301C26.7697 27.002 25.8352 25.964 25.1725 24.6163C24.5097 23.2603 24.1742 21.7034 24.1657 19.9456V19.0416C24.1657 17.2418 24.4928 15.6598 25.147 14.2954C25.8097 12.9227 26.74 11.8722 27.938 11.144C29.1444 10.4074 30.5207 10.039 32.067 10.039C33.6133 10.039 34.9854 10.4074 36.1834 11.144C37.3898 11.8722 38.3201 12.9227 38.9744 14.2954C39.637 15.6598 39.9685 17.2377 39.9685 19.029V19.8451ZM36.0942 19.0164C36.0942 17.0996 35.7458 15.6431 35.0492 14.647C34.3525 13.6509 33.3585 13.1529 32.067 13.1529C30.7842 13.1529 29.7944 13.6467 29.0977 14.6344C28.401 15.6138 28.0485 17.0536 28.0399 18.9537V19.8451C28.0399 21.7117 28.3882 23.1598 29.0849 24.1894C29.7816 25.219 30.7842 25.7338 32.0925 25.7338C33.3755 25.7338 34.361 25.24 35.0492 24.2523C35.7374 23.2561 36.0857 21.808 36.0942 19.9078V19.0164ZM52.3684 23.7751C52.3684 23.0636 52.1135 22.5196 51.6039 22.1428C51.094 21.7578 50.1765 21.356 48.851 20.9374C47.5257 20.5106 46.4764 20.0921 45.7032 19.6818C43.5962 18.5603 42.5427 17.0494 42.5427 15.1493C42.5427 14.1615 42.8231 13.2826 43.3838 12.5125C43.9531 11.7341 44.7645 11.1272 45.8179 10.692C46.88 10.2567 48.0695 10.039 49.3864 10.039C50.7117 10.039 51.8927 10.2776 52.9292 10.7547C53.9658 11.2235 54.7686 11.8889 55.3379 12.7511C55.9156 13.6133 56.2044 14.5926 56.2044 15.6891H52.3812C52.3812 14.8521 52.1135 14.2034 51.5783 13.743C51.043 13.2743 50.2912 13.0399 49.3226 13.0399C48.388 13.0399 47.6616 13.2366 47.1434 13.63C46.6251 14.0151 46.366 14.5257 46.366 15.1618C46.366 15.7561 46.6676 16.2541 47.2708 16.656C47.8826 17.0577 48.7788 17.4344 49.9599 17.786C52.1348 18.4306 53.7194 19.2298 54.7134 20.1841C55.7074 21.1384 56.2044 22.327 56.2044 23.75C56.2044 25.332 55.597 26.575 54.3821 27.4791C53.1671 28.3747 51.5317 28.8226 49.4756 28.8226C48.0482 28.8226 46.7482 28.5673 45.5758 28.0566C44.4033 27.5377 43.5071 26.8303 42.8867 25.9347C42.2751 25.039 41.9692 24.0011 41.9692 22.8208H45.8052C45.8052 24.8381 47.0287 25.8468 49.4756 25.8468C50.3846 25.8468 51.094 25.6668 51.6039 25.3068C52.1135 24.9386 52.3684 24.428 52.3684 23.7751ZM73.906 28.5714H70.0828V20.7366H62.6275V28.5714H58.8043V10.2902H62.6275V17.6981H70.0828V10.2902H73.906V28.5714ZM91.3018 10.2902V22.3311C91.3018 24.3317 90.6645 25.9137 89.3901 27.0773C88.1243 28.2408 86.3911 28.8226 84.1906 28.8226C82.0241 28.8226 80.3036 28.2576 79.0292 27.1276C77.7548 25.9974 77.1049 24.4447 77.0793 22.4693V10.2902H80.9026V22.3563C80.9026 23.5533 81.1914 24.428 81.7692 24.9804C82.3555 25.5246 83.1625 25.7966 84.1906 25.7966C86.3401 25.7966 87.4319 24.6833 87.4658 22.4567V10.2902H91.3018ZM100.248 21.2388L98.2601 23.3483V28.5714H94.4369V10.2902H98.2601V18.577L99.9424 16.3044L104.67 10.2902H109.373L102.784 18.4137L109.564 28.5714H105.014L100.248 21.2388Z" fill="black"/>
<path d="M128.438 21.9503H117.257L114.918 28.5714H109.704L120.608 0.133911H125.108L136.031 28.5714H130.797L128.438 21.9503ZM118.665 17.966H127.031L122.848 6.16907L118.665 17.966ZM144.615 28.5714H139.619V0.133911H144.615V28.5714Z" fill="#FF4838"/>
</svg>
