<svg width="152" height="21" viewBox="0 0 152 21" fill="none" xmlns="http://www.w3.org/2000/svg">
<g clip-path="url(#clip0)">
<path d="M39.6877 10.4001C39.6877 10.4001 21.7303 -12.9952 0 10.4001C0 10.4001 11.077 24.825 26.3624 19.6847L23.7667 17.0582C22.1528 18.0219 20.2447 18.3577 18.402 18.0024C16.5592 17.6471 14.9091 16.6251 13.7626 15.1292C12.6161 13.6332 12.0523 11.7665 12.1775 9.88077C12.3026 7.99507 13.1081 6.22059 14.4422 4.8917C15.7762 3.56281 17.5467 2.77128 19.42 2.66627C21.2933 2.56125 23.14 3.14999 24.6122 4.32156C26.0844 5.49313 27.0804 7.16662 27.4126 9.02669C27.7447 10.8868 27.39 12.805 26.4153 14.4199L30.0645 18.078C33.6741 16.076 36.9265 13.481 39.6877 10.4001Z" fill="#5E8ECB"/>
<path d="M27.5336 10.3992C27.5349 8.68915 26.9746 7.0267 25.94 5.67089C24.9055 4.31509 23.4548 3.34209 21.8139 2.9035C20.1731 2.46491 18.4343 2.58537 16.8685 3.24611C15.3028 3.90685 13.9979 5.07076 13.1574 6.55647C12.3168 8.04218 11.9878 9.76624 12.2214 11.46C12.4551 13.1538 13.2384 14.7221 14.4493 15.9206C15.6602 17.1191 17.2307 17.8805 18.916 18.0861C20.6013 18.2917 22.3068 17.93 23.7667 17.0573L26.3623 19.6838C27.6392 19.2544 28.8777 18.7169 30.0645 18.0771L26.4153 14.419C27.1481 13.2082 27.535 11.8172 27.5336 10.3992ZM19.8409 14.5494C19.026 14.5494 18.2295 14.306 17.5519 13.85C16.8744 13.3939 16.3463 12.7458 16.0345 11.9874C15.7226 11.2291 15.6411 10.3946 15.8 9.58953C15.959 8.78447 16.3514 8.04497 16.9276 7.46456C17.5038 6.88414 18.2379 6.48887 19.0371 6.32874C19.8363 6.1686 20.6647 6.25079 21.4176 6.56491C22.1704 6.87903 22.8139 7.41097 23.2666 8.09346C23.7193 8.77596 23.9609 9.57836 23.9609 10.3992C23.9609 11.4999 23.5269 12.5555 22.7542 13.3338C21.9816 14.1121 20.9336 14.5494 19.8409 14.5494Z" fill="white"/>
<path d="M20.7886 14.4405C23.0031 13.914 24.3747 11.6788 23.852 9.44796C23.3293 7.21717 21.1103 5.83557 18.8957 6.36209C16.6811 6.8886 15.3096 9.12385 15.8323 11.3546C16.355 13.5854 18.574 14.967 20.7886 14.4405Z" fill="#5E8ECB"/>
<path d="M42.9014 0.936817C44.9288 0.312385 47.0379 -0.00140029 49.1579 0.00598682C54.7023 0.00598682 57.4745 2.34591 57.4745 7.02575C57.4745 9.54551 56.7682 11.4368 55.3439 12.6819C53.9195 13.9269 51.7359 14.5613 48.7636 14.5613H46.4976V20.7926H42.9014V0.936817ZM48.3045 11.2945C49.3993 11.2945 50.3116 11.2649 51.0414 11.1997C51.7196 11.1391 52.3924 11.0281 53.0543 10.8676C53.6617 9.75048 53.9566 8.48823 53.9078 7.21547C53.9078 5.81626 53.5193 4.84393 52.7306 4.25105C51.9419 3.65816 50.7942 3.34986 49.2462 3.34986C48.3237 3.32299 47.4013 3.40457 46.4976 3.59294V11.3005L48.3045 11.2945ZM60.2055 19.1799C59.205 17.9941 58.7047 16.2155 58.7047 13.8439C58.7047 11.255 59.2246 9.3301 60.2644 8.06923C61.3062 6.80638 62.9306 6.172 65.1496 6.172C69.1362 6.172 71.1295 8.54354 71.1295 13.2866C71.1295 15.8597 70.6057 17.7767 69.558 19.0376C68.5162 20.3005 66.88 20.9289 64.6669 20.9289C62.6972 20.9605 61.21 20.3775 60.2055 19.1799ZM67.6863 18.2135C68.2995 16.7982 68.6122 15.2695 68.6045 13.7254C68.6309 12.7373 68.5139 11.7506 68.2573 10.7965C68.0747 10.1159 67.6574 9.52315 67.0801 9.12456C66.367 8.70911 65.5479 8.51522 64.7258 8.56725C63.8049 8.53272 62.886 8.67559 62.0183 8.9882C61.444 10.4098 61.1694 11.9362 61.212 13.4704C61.182 14.4708 61.301 15.47 61.5651 16.4348C61.7477 17.1154 62.165 17.7082 62.7423 18.1068C63.4403 18.511 64.2397 18.7025 65.0436 18.6582C65.9447 18.682 66.8419 18.5311 67.6863 18.2135ZM72.7128 19.7728L73.5721 17.6088C74.9136 18.3204 76.4117 18.6793 77.9276 18.6522C78.7037 18.6659 79.4791 18.5963 80.2407 18.4447C80.4036 17.9825 80.4813 17.4943 80.4702 17.004C80.4872 16.7542 80.4467 16.5038 80.3517 16.2724C80.2568 16.041 80.11 15.8348 79.9229 15.67C79.3189 15.2679 78.64 14.9936 77.9276 14.8637C77.0532 14.6704 76.2011 14.3863 75.3849 14.0159C74.7428 13.7258 74.1884 13.2696 73.7781 12.6937C73.3579 12.0342 73.1522 11.2591 73.1895 10.4763C73.1698 9.90393 73.2697 9.33373 73.4826 8.80265C73.6955 8.27156 74.0168 7.79143 74.4255 7.39334C75.2496 6.59887 76.5209 6.20757 78.2336 6.20757C79.0538 6.19158 79.8727 6.28124 80.6703 6.47437C81.3166 6.64497 81.938 6.9001 82.5185 7.23326V8.06923C82.5116 8.49064 82.4723 8.91088 82.4008 9.32615C82.3467 9.72892 82.2561 10.1258 82.13 10.5119H80.1642L79.9111 8.62654C79.3111 8.53464 78.7051 8.48905 78.0983 8.49018C77.4572 8.43503 76.8155 8.58884 76.2678 8.92891C76.0633 9.10481 75.9032 9.3272 75.8009 9.57771C75.6985 9.82822 75.6568 10.0997 75.6792 10.3696C75.6631 10.619 75.7084 10.8686 75.8111 11.0962C75.9138 11.3237 76.0707 11.5222 76.2678 11.674C76.9677 12.077 77.7329 12.352 78.5279 12.4862C79.7493 12.6844 80.9057 13.1743 81.9005 13.9151C82.2719 14.267 82.562 14.697 82.7502 15.1744C82.9384 15.6519 83.02 16.1652 82.9893 16.6779C83.0161 17.2579 82.9191 17.8369 82.7048 18.3759C82.4906 18.9149 82.1641 19.4013 81.7474 19.8024C80.9234 20.5929 79.5952 20.9882 77.7628 20.9882C76.0043 21.0217 74.2663 20.6034 72.7128 19.7728ZM85.7086 6.43286H88.2336V12.6582H94.0781V6.43286H96.5972V20.7926H94.0781V15.0297H88.2336V20.7926H85.7086V6.43286ZM101.112 19.8024C100.652 19.3558 100.295 18.8135 100.065 18.2134C99.8355 17.6133 99.7387 16.9699 99.7814 16.3281V6.43286H102.306V15.8182C102.306 16.8854 102.53 17.6265 102.983 18.0416C103.437 18.4566 104.208 18.6344 105.308 18.6344C106.373 18.6712 107.436 18.5146 108.445 18.172V6.43286H110.97V17.751C110.991 18.2772 110.852 18.7973 110.571 19.2414C110.29 19.6855 109.881 20.0323 109.399 20.2352C108.055 20.8021 106.604 21.0633 105.149 21.0001C103.342 21.0001 102 20.6028 101.112 19.8024ZM123.013 20.6621C122.666 20.444 122.394 20.1258 122.23 19.7491L120.646 16.1918C120.474 15.7146 120.177 15.2928 119.787 14.9704C119.336 14.6972 118.812 14.5709 118.286 14.6088H116.732V20.7926H114.184V6.43286H116.709V12.2609H118.127C118.683 12.2964 119.237 12.1687 119.722 11.8933C120.106 11.6095 120.404 11.2235 120.582 10.7787L122.424 6.29057L124.855 7.15026L123.089 11.1937C122.879 11.6974 122.584 12.1607 122.218 12.5633C121.826 12.9262 121.354 13.1903 120.841 13.3341V13.4704C121.295 13.5941 121.715 13.8236 122.065 14.1404C122.396 14.4929 122.673 14.8924 122.889 15.3261L124.837 19.1147L125.938 19.3222V20.7629C125.385 20.9097 124.815 20.9815 124.243 20.9763C123.812 20.9846 123.387 20.8761 123.013 20.6621Z" fill="black"/>
<path d="M128.192 20.5257C129.087 17.1146 130.107 13.6027 131.253 9.9901C132.398 6.37745 133.507 3.13832 134.578 0.272705H140.211C141.302 3.1067 142.414 6.34583 143.548 9.9901C144.682 13.6344 145.698 17.1541 146.597 20.5494L142.795 20.8162L142.206 18.4446C141.77 16.7134 141.429 15.4209 141.194 14.5553H133.542C132.891 16.9703 132.367 19.0514 131.971 20.7984L128.192 20.5257ZM140.305 11.33C139.257 7.77271 138.461 5.21539 137.915 3.65808H136.903C136.161 5.76085 135.353 8.31816 134.478 11.33H140.305ZM148.398 0.272705H152V20.7925H148.398V0.272705Z" fill="#FF4838"/>
</g>
<defs>
<clipPath id="clip0">
<rect width="152" height="21" fill="white"/>
</clipPath>
</defs>
</svg>
