<svg width="176" height="36" viewBox="0 0 176 36" fill="none" xmlns="http://www.w3.org/2000/svg">
<path d="M6.12907 21.6059V34.2856H0.0412598V0.160645H13.4441C17.3582 0.160645 20.4623 1.15283 22.7563 3.13721C25.0663 5.12158 26.2212 7.74658 26.2212 11.0122C26.2212 14.356 25.0904 16.9575 22.8284 18.817C20.5827 20.6763 17.4304 21.6059 13.3719 21.6059H6.12907ZM6.12907 16.8481H13.4441C15.6097 16.8481 17.262 16.356 18.401 15.3716C19.5399 14.3716 20.1094 12.9341 20.1094 11.0591C20.1094 9.21533 19.532 7.74658 18.3769 6.65283C17.2219 5.54345 15.6338 4.97314 13.6125 4.94189H6.12907V16.8481ZM48.5135 23.8141C48.5135 25.9738 48.1216 27.8672 47.3378 29.4944C46.5541 31.1216 45.43 32.3771 43.9657 33.261C42.5116 34.1451 40.841 34.587 38.9537 34.587C37.0873 34.587 35.4218 34.1501 33.9573 33.2761C32.493 32.4023 31.3586 31.1567 30.5543 29.5395C29.7498 27.9123 29.3426 26.044 29.3322 23.9346V22.8498C29.3322 20.6902 29.7292 18.7918 30.5233 17.1544C31.3277 15.5072 32.4569 14.2466 33.911 13.3727C35.3753 12.4888 37.0459 12.0468 38.9228 12.0468C40.7996 12.0468 42.4651 12.4888 43.9192 13.3727C45.3835 14.2466 46.5128 15.5072 47.3069 17.1544C48.1112 18.7918 48.5135 20.6852 48.5135 22.8347V23.8141ZM43.811 22.8196C43.811 20.5194 43.3881 18.7717 42.5426 17.5763C41.6969 16.3811 40.4904 15.7834 38.9228 15.7834C37.3657 15.7834 36.1643 16.376 35.3186 17.5612C34.473 18.7366 34.0451 20.4642 34.0347 22.7444V23.8141C34.0347 26.054 34.4575 27.7918 35.3031 29.0272C36.1488 30.2627 37.3657 30.8806 38.9537 30.8806C40.511 30.8806 41.7073 30.2879 42.5426 29.1027C43.3778 27.9073 43.8006 26.1695 43.811 23.8894V22.8196ZM63.5645 28.5301C63.5645 27.6762 63.2551 27.0234 62.6365 26.5714C62.0177 26.1094 60.9039 25.6271 59.2951 25.1248C57.6865 24.6126 56.4128 24.1105 55.4743 23.6182C52.9169 22.2723 51.6381 20.4592 51.6381 18.1791C51.6381 16.9938 51.9784 15.9391 52.659 15.015C53.35 14.0809 54.3349 13.3526 55.6135 12.8303C56.9027 12.308 58.3465 12.0468 59.9449 12.0468C61.5535 12.0468 62.9871 12.3331 64.2451 12.9056C65.5033 13.4681 66.4779 14.2667 67.1688 15.3013C67.87 16.3359 68.2206 17.511 68.2206 18.8269H63.58C63.58 17.8225 63.2551 17.044 62.6055 16.4916C61.9557 15.9291 61.0431 15.6478 59.8675 15.6478C58.7331 15.6478 57.8514 15.8839 57.2224 16.356C56.5933 16.818 56.2788 17.4308 56.2788 18.1942C56.2788 18.9073 56.6449 19.5049 57.3771 19.9871C58.1196 20.4692 59.2075 20.9212 60.641 21.3431C63.281 22.1166 65.2043 23.0758 66.4108 24.2209C67.6173 25.366 68.2206 26.7923 68.2206 28.4999C68.2206 30.3983 67.4833 31.8899 66.0086 32.9749C64.5339 34.0496 62.5488 34.587 60.0531 34.587C58.3206 34.587 56.7428 34.2807 55.3196 33.6678C53.8965 33.0452 52.8086 32.1963 52.0557 31.1216C51.3133 30.0467 50.942 28.8013 50.942 27.385H55.5981C55.5981 29.8057 57.0831 31.0162 60.0531 31.0162C61.1565 31.0162 62.0177 30.8002 62.6365 30.3682C63.2551 29.9262 63.5645 29.3135 63.5645 28.5301ZM89.7067 34.2856H85.0661V24.8838H76.0169V34.2856H71.3763V12.3481H76.0169V21.2377H85.0661V12.3481H89.7067V34.2856ZM110.822 12.3481V26.7973C110.822 29.198 110.048 31.0964 108.501 32.4927C106.965 33.889 104.861 34.587 102.19 34.587C99.5604 34.587 97.472 33.909 95.9251 32.553C94.3783 31.1968 93.5894 29.3336 93.5584 26.9631V12.3481H98.199V26.8275C98.199 28.2639 98.5496 29.3135 99.251 29.9764C99.9626 30.6294 100.942 30.9558 102.19 30.9558C104.799 30.9558 106.124 29.6199 106.165 26.948V12.3481H110.822ZM121.681 25.4866L119.267 28.0179V34.2856H114.627V12.3481H119.267V22.2923L121.309 19.5652L127.048 12.3481H132.756L124.759 22.0964L132.988 34.2856H127.466L121.681 25.4866Z" fill="black"/>
<path d="M155.897 26.3403H142.326L139.487 34.2856H133.158L146.393 0.160645H151.855L165.114 34.2856H158.761L155.897 26.3403ZM144.035 21.5591H154.189L149.112 7.40283L144.035 21.5591ZM175.533 34.2856H169.469V0.160645H175.533V34.2856Z" fill="#FF4838"/>
</svg>
