<svg width="28" height="28" viewBox="0 0 28 28" fill="none" xmlns="http://www.w3.org/2000/svg">
<path d="M15.8808 14.0002L26.9341 2.94683C27.1526 2.69176 27.2667 2.36366 27.2537 2.02809C27.2408 1.69253 27.1017 1.37421 26.8642 1.13675C26.6268 0.899289 26.3084 0.760179 25.9729 0.747217C25.6373 0.734256 25.3092 0.848398 25.0541 1.06683L14.0008 12.1202L2.94746 1.0535C2.69639 0.802428 2.35587 0.661377 2.0008 0.661377C1.64573 0.661377 1.3052 0.802428 1.05413 1.0535C0.80306 1.30457 0.662009 1.6451 0.662009 2.00017C0.662009 2.35523 0.80306 2.69576 1.05413 2.94683L12.1208 14.0002L1.05413 25.0535C0.914556 25.173 0.801196 25.3201 0.721165 25.4855C0.641134 25.651 0.59616 25.8311 0.589067 26.0148C0.581975 26.1984 0.612915 26.3815 0.679948 26.5526C0.746981 26.7237 0.848658 26.8791 0.978598 27.009C1.10854 27.139 1.26393 27.2407 1.43503 27.3077C1.60613 27.3747 1.78924 27.4057 1.97287 27.3986C2.1565 27.3915 2.33667 27.3465 2.50209 27.2665C2.66751 27.1864 2.8146 27.0731 2.93413 26.9335L14.0008 15.8802L25.0541 26.9335C25.3092 27.1519 25.6373 27.2661 25.9729 27.2531C26.3084 27.2402 26.6268 27.101 26.8642 26.8636C27.1017 26.6261 27.2408 26.3078 27.2537 25.9722C27.2667 25.6367 27.1526 25.3086 26.9341 25.0535L15.8808 14.0002Z" fill="white" fill-opacity="0.8"/>
</svg>
