<svg width="40" height="40" viewBox="0 0 40 40" fill="none" xmlns="http://www.w3.org/2000/svg">
<path d="M19.9999 17.3333C22.5733 17.3333 24.6666 15.2393 24.6666 12.6667C24.6666 10.094 22.5733 8 19.9999 8C17.4266 8 15.3333 10.094 15.3333 12.6667C15.3333 15.2393 17.4266 17.3333 19.9999 17.3333ZM19.9999 9.33333C21.8379 9.33333 23.3333 10.8287 23.3333 12.6667C23.3333 14.5047 21.8379 16 19.9999 16C18.1619 16 16.6666 14.5047 16.6666 12.6667C16.6666 10.8287 18.1619 9.33333 19.9999 9.33333Z" fill="#DF4235"/>
<path d="M19.8819 36.5047L30.1092 21.7333C33.9452 16.6193 33.3905 8.21333 28.9219 3.74533C26.5072 1.33 23.2965 0 19.8819 0C16.4672 0 13.2565 1.33 10.8419 3.74467C6.37319 8.21267 5.81853 16.6187 9.63919 21.7127L19.8819 36.5047ZM11.7845 4.68733C13.9479 2.52467 16.8232 1.33333 19.8819 1.33333C22.9405 1.33333 25.8159 2.52467 27.9792 4.68733C32.0125 8.72 32.5092 16.312 29.0279 20.9533L19.8819 34.162L10.7212 20.9333C7.25453 16.312 7.75186 8.72 11.7845 4.68733Z" fill="#DF4235"/>
<path d="M28.078 28.6712C27.7113 28.6266 27.3807 28.8892 27.338 29.2552C27.2953 29.6212 27.5567 29.9526 27.922 29.9952C34.9327 30.8206 38.6667 33.0446 38.6667 34.3332C38.6667 36.1426 31.5653 38.6666 20 38.6666C8.43467 38.6666 1.33333 36.1426 1.33333 34.3332C1.33333 33.0446 5.06733 30.8206 12.078 29.9952C12.4433 29.9526 12.7047 29.6206 12.662 29.2552C12.6187 28.8892 12.288 28.6252 11.922 28.6712C4.90267 29.4979 0 31.8259 0 34.3332C0 37.1492 6.87 39.9999 20 39.9999C33.13 39.9999 40 37.1492 40 34.3332C40 31.8259 35.0973 29.4979 28.078 28.6712Z" fill="#DF4235"/>
</svg>
