<svg width="50" height="50" viewBox="0 0 50 50" fill="none" xmlns="http://www.w3.org/2000/svg">
<path d="M49.4153 10.7808C49.4108 10.708 49.3966 10.6356 49.3726 10.5668C49.3636 10.54 49.3567 10.5143 49.3453 10.4883C49.3046 10.3975 49.248 10.3149 49.1785 10.2441L39.1785 0.244141C39.1077 0.174154 39.0247 0.117594 38.9335 0.0773112C38.9087 0.0659179 38.8835 0.0590006 38.8578 0.0500489C38.787 0.0256348 38.7138 0.0109864 38.6393 0.00651042C38.6251 0.00935873 38.61 0 38.5925 0H13.5925C11.2927 0.00284831 9.42871 1.86646 9.42586 4.16667V10.2999C3.6971 12.8263 0 18.4969 0 24.7583C0 31.0197 3.6971 36.6903 9.42586 39.2167V45.8333C9.42871 48.1335 11.2927 49.9972 13.5925 50H45.2592C47.5594 49.9972 49.4234 48.1335 49.4259 45.8333V10.8333C49.4259 10.815 49.4169 10.7992 49.4153 10.7808ZM46.5808 10H40.2592C39.799 10 39.4259 9.62687 39.4259 9.16667V2.84505L46.5808 10ZM1.68416 24.7583C1.67928 20.9993 3.17017 17.3934 5.82804 14.7355C8.48592 12.0776 12.0923 10.5868 15.8508 10.5916C16.3245 10.5916 16.7944 10.6148 17.2583 10.66C23.702 11.2968 28.8879 16.2325 29.8425 22.6367C29.9532 23.3386 30.0114 24.0479 30.0167 24.7583C30.0228 27.4272 29.2684 30.0423 27.8426 32.2982C26.7118 34.1007 25.188 35.6242 23.385 36.7542C19.0194 39.4958 13.5091 39.6497 8.9974 37.1554C4.48568 34.6615 1.68498 29.9133 1.68416 24.7583ZM25.5294 37.2766C25.6433 37.1883 25.756 37.1008 25.8675 37.0101C26.2789 36.6789 26.6728 36.3269 27.0483 35.9558C27.4194 35.5802 27.7714 35.1868 28.1026 34.7758C28.1934 34.6643 28.2808 34.5508 28.3691 34.4368C28.4701 34.305 28.5795 34.1801 28.6759 34.0458L35.78 41.1584C36.2504 41.6243 36.5153 42.2591 36.5153 42.9211C36.5153 43.5836 36.2504 44.2179 35.78 44.6842C34.7961 45.6352 33.2357 45.6352 32.2518 44.6842L25.1383 37.5834C25.2726 37.4858 25.3984 37.3775 25.5294 37.2766ZM45.2592 48.3333H13.5925C12.2119 48.3333 11.0925 47.2139 11.0925 45.8333V39.8673C11.1442 39.884 11.1983 39.895 11.2508 39.9109C11.3843 39.9516 11.5194 39.9841 11.6545 40.0216C11.9661 40.105 12.2803 40.1884 12.5977 40.2506C12.7535 40.2832 12.9093 40.3133 13.0668 40.341C13.3842 40.3967 13.7044 40.4407 14.0259 40.4777C14.1695 40.494 14.3111 40.5143 14.4552 40.5265C14.917 40.566 15.3817 40.5916 15.8508 40.5916C18.6055 40.5937 21.3123 39.8726 23.7004 38.5002L31.0685 45.861C32.1025 46.9926 33.6747 47.4654 35.1611 47.0911C36.6479 46.7171 37.8092 45.557 38.1844 44.0706C38.56 42.5842 38.0888 41.0116 36.9576 39.9768L29.5927 32.6074C30.9652 30.2193 31.6866 27.5126 31.6842 24.7583C31.6842 24.2305 31.6589 23.7069 31.6077 23.1877C31.252 19.5467 29.6403 16.1434 27.0492 13.5616C24.0857 10.5823 20.0533 8.91276 15.8508 8.92497C15.3817 8.92497 14.917 8.95101 14.4552 8.99007C14.3111 9.00269 14.1683 9.02262 14.0251 9.03931C13.7044 9.07511 13.3858 9.12069 13.0684 9.17603C12.9102 9.20369 12.7523 9.2338 12.5952 9.26676C12.2819 9.33187 11.971 9.40837 11.6626 9.49341C11.5243 9.53084 11.3859 9.56421 11.2459 9.60571C11.1943 9.62158 11.1418 9.63257 11.0901 9.64925V4.16667C11.0901 2.78605 12.2095 1.66667 13.5901 1.66667H37.7592V9.16667C37.7592 10.5473 38.8786 11.6667 40.2592 11.6667H47.7592V45.8333C47.7592 47.2139 46.6402 48.3333 45.2592 48.3333Z" fill="#DF4235"/>
<path d="M34.4259 5.83333C34.4259 5.37313 34.0528 5 33.5926 5H15.2592C14.799 5 14.4259 5.37313 14.4259 5.83333C14.4259 6.29354 14.799 6.66667 15.2592 6.66667H33.5926C34.0528 6.66667 34.4259 6.29354 34.4259 5.83333Z" fill="#DF4235"/>
<path d="M43.5926 25H33.5926C33.1324 25 32.7593 25.3731 32.7593 25.8333C32.7593 26.2935 33.1324 26.6667 33.5926 26.6667H43.5926C44.0528 26.6667 44.4259 26.2935 44.4259 25.8333C44.4259 25.3731 44.0528 25 43.5926 25Z" fill="#DF4235"/>
<path d="M44.4258 35.8333C44.4258 35.3731 44.0527 35 43.5925 35H36.0925C35.6323 35 35.2592 35.3731 35.2592 35.8333C35.2592 36.2935 35.6323 36.6667 36.0925 36.6667H43.5925C44.0527 36.6667 44.4258 36.2935 44.4258 35.8333Z" fill="#DF4235"/>
<path d="M44.4259 15.8333C44.4259 15.3731 44.0528 15 43.5926 15H31.0926C30.6324 15 30.2593 15.3731 30.2593 15.8333C30.2593 16.2935 30.6324 16.6667 31.0926 16.6667H43.5926C44.0528 16.6667 44.4259 16.2935 44.4259 15.8333Z" fill="#DF4235"/>
<path d="M12.7591 20.8334H18.5924C19.0527 20.8334 19.4258 20.4602 19.4258 20C19.4258 19.5398 19.0527 19.1667 18.5924 19.1667H12.7591C12.2989 19.1667 11.9258 19.5398 11.9258 20C11.9258 20.4602 12.2989 20.8334 12.7591 20.8334Z" fill="#DF4235"/>
<path d="M22.7592 25C22.7592 24.5398 22.3861 24.1666 21.9259 24.1666H9.42586C8.96566 24.1666 8.59253 24.5398 8.59253 25C8.59253 25.4602 8.96566 25.8333 9.42586 25.8333H21.9259C22.3861 25.8333 22.7592 25.4602 22.7592 25Z" fill="#DF4235"/>
<path d="M18.5924 29.1667H12.7591C12.2989 29.1667 11.9258 29.5398 11.9258 30C11.9258 30.4602 12.2989 30.8333 12.7591 30.8333H18.5924C19.0527 30.8333 19.4258 30.4602 19.4258 30C19.4258 29.5398 19.0527 29.1667 18.5924 29.1667Z" fill="#DF4235"/>
<path d="M21.7827 35.7499C23.8152 34.6676 25.5006 33.0327 26.6444 31.0344C26.7103 30.9192 26.7819 30.8077 26.8437 30.6909C26.8759 30.6307 26.9011 30.5685 26.932 30.5082C27.0586 30.2649 27.1819 30.0216 27.2909 29.7726C27.4004 29.5235 27.4862 29.2867 27.5753 29.0418C27.601 28.971 27.6335 28.9018 27.6588 28.8302C29.7779 22.6677 26.8075 15.9107 20.8342 13.3061C14.8605 10.7015 7.88826 13.1234 4.81534 18.8701C3.84814 20.6804 3.3444 22.7023 3.34928 24.7551C3.34155 29.1594 5.65478 33.2418 9.43692 35.4985C13.2191 37.7556 17.9102 37.8528 21.7827 35.7548V35.7499ZM10.6576 34.2652C9.75064 33.7708 8.91975 33.1482 8.19018 32.4166C7.68399 31.9108 7.22867 31.357 6.83031 30.7626C6.63338 30.468 6.4523 30.1656 6.28588 29.8552C3.77774 25.1192 5.10668 19.2611 9.41291 16.0714C13.7191 12.8817 19.7104 13.3179 23.5096 17.0976C26.8743 20.494 27.6311 25.6877 25.376 29.9032V29.9101C24.3824 31.7692 22.859 33.2914 20.9994 34.2843C17.7735 36.0368 13.8782 36.0307 10.6576 34.2684V34.2652Z" fill="#DF4235"/>
</svg>
